<svg width="148" height="24" viewBox="0 0 148 24" fill="none" xmlns="http://www.w3.org/2000/svg">
<path d="M0.659091 0.227272H6.17045L11.4773 10.25H11.7045L17.0114 0.227272H22.5227L14.0341 15.2727V23.5H9.14773V15.2727L0.659091 0.227272Z" fill="#FF0000"/>
<path d="M35.0312 16.0682V6.04545H39.8722V23.5H35.2244V20.3295H35.0426C34.6487 21.3523 33.9934 22.1742 33.0767 22.7955C32.1676 23.4167 31.0578 23.7273 29.7472 23.7273C28.5805 23.7273 27.554 23.4621 26.6676 22.9318C25.7813 22.4015 25.0881 21.6477 24.5881 20.6705C24.0956 19.6932 23.8456 18.5227 23.8381 17.1591V6.04545H28.679V16.2955C28.6866 17.3258 28.9631 18.1402 29.5085 18.7386C30.054 19.3371 30.785 19.6364 31.7017 19.6364C32.285 19.6364 32.8305 19.5038 33.3381 19.2386C33.8456 18.9659 34.2547 18.5644 34.5653 18.0341C34.8835 17.5038 35.0388 16.8485 35.0312 16.0682ZM43.7443 23.5V6.04545H48.358V9.125H48.5625C48.9261 8.10227 49.5322 7.29545 50.3807 6.70454C51.2292 6.11364 52.2443 5.81818 53.4261 5.81818C54.6231 5.81818 55.642 6.11742 56.483 6.71591C57.3239 7.30682 57.8845 8.10985 58.1648 9.125H58.3466C58.7027 8.125 59.3466 7.32576 60.2784 6.72727C61.2178 6.12121 62.3277 5.81818 63.608 5.81818C65.2367 5.81818 66.5587 6.33712 67.5739 7.375C68.5966 8.4053 69.108 9.86742 69.108 11.7614V23.5H64.2784V12.7159C64.2784 11.7462 64.0208 11.0189 63.5057 10.5341C62.9905 10.0492 62.3466 9.80682 61.5739 9.80682C60.6951 9.80682 60.0095 10.0871 59.517 10.6477C59.0246 11.2008 58.7784 11.9318 58.7784 12.8409V23.5H54.0852V12.6136C54.0852 11.7576 53.839 11.0758 53.3466 10.5682C52.8617 10.0606 52.2216 9.80682 51.4261 9.80682C50.8883 9.80682 50.4034 9.94318 49.9716 10.2159C49.5473 10.4811 49.2102 10.8561 48.9602 11.3409C48.7102 11.8182 48.5852 12.3788 48.5852 13.0227V23.5H43.7443ZM105.128 23.8295C104.014 23.8295 103.022 23.6364 102.151 23.25C101.279 22.8561 100.59 22.2765 100.082 21.5114C99.5824 20.7386 99.3324 19.7765 99.3324 18.625C99.3324 17.6553 99.5104 16.8409 99.8665 16.1818C100.223 15.5227 100.707 14.9924 101.321 14.5909C101.935 14.1894 102.632 13.8864 103.412 13.6818C104.2 13.4773 105.026 13.3333 105.889 13.25C106.904 13.1439 107.723 13.0455 108.344 12.9545C108.965 12.8561 109.416 12.7121 109.696 12.5227C109.976 12.3333 110.116 12.053 110.116 11.6818V11.6136C110.116 10.8939 109.889 10.3371 109.435 9.94318C108.988 9.54924 108.351 9.35227 107.526 9.35227C106.654 9.35227 105.961 9.54545 105.446 9.93182C104.931 10.3106 104.59 10.7879 104.423 11.3636L99.946 11C100.173 9.93939 100.62 9.02273 101.287 8.25C101.954 7.4697 102.813 6.87121 103.866 6.45454C104.927 6.0303 106.154 5.81818 107.548 5.81818C108.518 5.81818 109.446 5.93182 110.332 6.15909C111.226 6.38636 112.018 6.73864 112.707 7.21591C113.404 7.69318 113.954 8.30682 114.355 9.05682C114.757 9.79924 114.957 10.6894 114.957 11.7273V23.5H110.366V21.0795H110.23C109.95 21.625 109.575 22.1061 109.105 22.5227C108.635 22.9318 108.071 23.2538 107.412 23.4886C106.753 23.7159 105.991 23.8295 105.128 23.8295ZM106.514 20.4886C107.226 20.4886 107.855 20.3485 108.401 20.0682C108.946 19.7803 109.374 19.3939 109.685 18.9091C109.995 18.4242 110.151 17.875 110.151 17.2614V15.4091C109.999 15.5076 109.791 15.5985 109.526 15.6818C109.268 15.7576 108.976 15.8295 108.651 15.8977C108.325 15.9583 107.999 16.0152 107.673 16.0682C107.348 16.1136 107.052 16.1553 106.787 16.1932C106.219 16.2765 105.723 16.4091 105.298 16.5909C104.874 16.7727 104.545 17.0189 104.31 17.3295C104.075 17.6326 103.957 18.0114 103.957 18.4659C103.957 19.125 104.196 19.6288 104.673 19.9773C105.158 20.3182 105.772 20.4886 106.514 20.4886ZM118.713 23.5V6.04545H123.406V9.09091H123.588C123.906 8.00758 124.44 7.18939 125.19 6.63636C125.94 6.07576 126.804 5.79545 127.781 5.79545C128.024 5.79545 128.285 5.81061 128.565 5.84091C128.846 5.87121 129.092 5.91288 129.304 5.96591V10.2614C129.077 10.1932 128.762 10.1326 128.361 10.0795C127.959 10.0265 127.592 10 127.259 10C126.546 10 125.91 10.1553 125.349 10.4659C124.796 10.7689 124.357 11.1932 124.031 11.7386C123.713 12.2841 123.554 12.9129 123.554 13.625V23.5H118.713ZM137.426 23.7841C136.1 23.7841 134.9 23.4432 133.824 22.7614C132.756 22.072 131.907 21.0606 131.278 19.7273C130.657 18.3864 130.347 16.7424 130.347 14.7955C130.347 12.7955 130.669 11.1326 131.312 9.80682C131.956 8.47348 132.813 7.47727 133.881 6.81818C134.956 6.15152 136.134 5.81818 137.415 5.81818C138.392 5.81818 139.206 5.98485 139.858 6.31818C140.517 6.64394 141.047 7.05303 141.449 7.54545C141.858 8.0303 142.169 8.50758 142.381 8.97727H142.528V0.227272H147.358V23.5H142.585V20.7045H142.381C142.153 21.1894 141.831 21.6705 141.415 22.1477C141.006 22.6174 140.472 23.0076 139.812 23.3182C139.161 23.6288 138.366 23.7841 137.426 23.7841ZM138.96 19.9318C139.741 19.9318 140.4 19.7197 140.938 19.2955C141.483 18.8636 141.9 18.2614 142.188 17.4886C142.483 16.7159 142.631 15.8106 142.631 14.7727C142.631 13.7348 142.487 12.8333 142.199 12.0682C141.911 11.303 141.494 10.7121 140.949 10.2955C140.403 9.87879 139.741 9.67045 138.96 9.67045C138.165 9.67045 137.494 9.88636 136.949 10.3182C136.403 10.75 135.991 11.3485 135.71 12.1136C135.43 12.8788 135.29 13.7652 135.29 14.7727C135.29 15.7879 135.43 16.6856 135.71 17.4659C135.998 18.2386 136.411 18.8447 136.949 19.2841C137.494 19.7159 138.165 19.9318 138.96 19.9318Z" fill="white"/>
<path d="M79.0653 0.227272H84.5767L89.8835 10.25H90.1108L95.4176 0.227272H100.929L92.4403 15.2727V23.5H87.554V15.2727L79.0653 0.227272Z" fill="#FE0000"/>
</svg>
